<svg width="524" height="366" viewBox="0 0 524 366" fill="none" xmlns="http://www.w3.org/2000/svg">
<g opacity="0.6" filter="url(#filter0_f_392_109)">
<rect x="480" y="43.9998" width="278" height="436" rx="12" transform="rotate(90 480 43.9998)" fill="url(#paint0_linear_392_109)"/>
</g>
<rect x="480" y="43.9998" width="278" height="436" rx="12" transform="rotate(90 480 43.9998)" fill="url(#paint1_linear_392_109)"/>
<mask id="mask0_392_109" style="mask-type:alpha" maskUnits="userSpaceOnUse" x="44" y="43" width="436" height="279">
<rect x="480" y="43.9998" width="278" height="436" rx="12" transform="rotate(90 480 43.9998)" fill="url(#paint2_linear_392_109)"/>
</mask>
<g mask="url(#mask0_392_109)">
<path d="M294.019 136.557L386.797 136.557L386.797 229.335L294.019 136.557Z" fill="url(#paint3_linear_392_109)" fill-opacity="0.6"/>
<path d="M108.464 229.335L201.241 229.335L201.241 136.557L108.464 229.335Z" fill="url(#paint4_linear_392_109)" fill-opacity="0.6"/>
<path d="M386.797 136.557L479.574 136.557L479.574 229.335L386.797 136.557Z" fill="url(#paint5_linear_392_109)" fill-opacity="0.6"/>
<path d="M201.241 229.335L294.019 229.335L294.019 136.557L201.241 229.335Z" fill="url(#paint6_linear_392_109)" fill-opacity="0.6"/>
<path d="M294.019 43.78L386.797 43.78L386.797 136.558L294.019 43.78Z" fill="url(#paint7_linear_392_109)" fill-opacity="0.6"/>
<path d="M108.464 136.558L201.241 136.558L201.241 43.78L108.464 136.558Z" fill="url(#paint8_linear_392_109)" fill-opacity="0.6"/>
<path d="M386.797 43.78L479.574 43.78L479.574 136.558L386.797 43.78Z" fill="url(#paint9_linear_392_109)" fill-opacity="0.6"/>
<path d="M201.241 136.558L294.019 136.558L294.019 43.78L201.241 136.558Z" fill="url(#paint10_linear_392_109)" fill-opacity="0.6"/>
<path d="M294.019 229.335L386.797 229.335L386.797 322.113L294.019 229.335Z" fill="url(#paint11_linear_392_109)" fill-opacity="0.6"/>
<path d="M108.464 322.113L201.241 322.113L201.241 229.335L108.464 322.113Z" fill="url(#paint12_linear_392_109)" fill-opacity="0.6"/>
<path d="M386.797 229.335L479.574 229.335L479.574 322.113L386.797 229.335Z" fill="url(#paint13_linear_392_109)" fill-opacity="0.6"/>
<path d="M201.241 322.113L294.019 322.113L294.019 229.335L201.241 322.113Z" fill="url(#paint14_linear_392_109)" fill-opacity="0.6"/>
</g>
<g opacity="0.6">
<rect x="140" y="183" width="51" height="67" rx="5" transform="rotate(90 140 183)" fill="url(#paint15_linear_392_109)" stroke="#2F333C"/>
<rect x="113" y="191" width="35" height="14" rx="5" transform="rotate(90 113 191)" stroke="#2F333C"/>
<path d="M72.8643 193.278L100.838 193.278" stroke="#2F333C"/>
<path d="M111.918 193.278L139.891 193.278" stroke="#2F333C"/>
<path d="M72.8643 208.298L99.2944 208.298" stroke="#2F333C"/>
<path d="M113.42 208.298L139.85 208.298" stroke="#2F333C"/>
<path d="M72.8643 223.319L100.838 223.319" stroke="#2F333C"/>
<path d="M111.918 223.319L139.891 223.319" stroke="#2F333C"/>
</g>
<path d="M420.741 73.8213L435.137 73.8213L435.137 88.2176L420.741 73.8213Z" fill="white"/>
<path d="M391.948 88.2176L406.345 88.2176L406.345 73.8213L391.948 88.2176Z" fill="white"/>
<path d="M435.137 73.8213L449.533 73.8213L449.533 88.2176L435.137 73.8213Z" fill="white"/>
<path d="M406.345 88.2176L420.741 88.2176L420.741 73.8213L406.345 88.2176Z" fill="white"/>
<mask id="path-16-outside-1_392_109" maskUnits="userSpaceOnUse" x="319" y="279" width="150" height="32" fill="black">
<rect fill="white" x="319" y="279" width="150" height="32"/>
<path d="M324.066 282.398H321.056V280.2H329.834V282.398H326.838V290H324.066V282.398ZM335.238 290.196C333.782 290.196 332.648 289.799 331.836 289.006C331.034 288.213 330.632 287.088 330.632 285.632V280.2H333.404V285.548C333.404 287.116 334.025 287.9 335.266 287.9C336.498 287.9 337.114 287.116 337.114 285.548V280.2H339.844V285.632C339.844 287.088 339.438 288.213 338.626 289.006C337.824 289.799 336.694 290.196 335.238 290.196ZM346.006 287.396H344.494V290H341.722V280.2H346.202C347.089 280.2 347.859 280.349 348.512 280.648C349.166 280.937 349.67 281.357 350.024 281.908C350.379 282.449 350.556 283.089 350.556 283.826C350.556 284.535 350.388 285.156 350.052 285.688C349.726 286.211 349.254 286.621 348.638 286.92L350.752 290H347.784L346.006 287.396ZM347.756 283.826C347.756 283.369 347.612 283.014 347.322 282.762C347.033 282.51 346.604 282.384 346.034 282.384H344.494V285.254H346.034C346.604 285.254 347.033 285.133 347.322 284.89C347.612 284.638 347.756 284.283 347.756 283.826ZM357.027 290.196C355.991 290.196 355.058 289.977 354.227 289.538C353.406 289.099 352.757 288.493 352.281 287.718C351.815 286.943 351.581 286.071 351.581 285.1C351.581 284.129 351.815 283.257 352.281 282.482C352.757 281.707 353.406 281.101 354.227 280.662C355.058 280.223 355.991 280.004 357.027 280.004C358.063 280.004 358.992 280.223 359.813 280.662C360.644 281.101 361.293 281.707 361.759 282.482C362.235 283.257 362.473 284.129 362.473 285.1C362.473 286.071 362.235 286.943 361.759 287.718C361.293 288.493 360.644 289.099 359.813 289.538C358.992 289.977 358.063 290.196 357.027 290.196ZM357.027 287.9C357.522 287.9 357.97 287.783 358.371 287.55C358.773 287.317 359.09 286.99 359.323 286.57C359.557 286.141 359.673 285.651 359.673 285.1C359.673 284.549 359.557 284.064 359.323 283.644C359.09 283.215 358.773 282.883 358.371 282.65C357.97 282.417 357.522 282.3 357.027 282.3C356.533 282.3 356.085 282.417 355.683 282.65C355.282 282.883 354.965 283.215 354.731 283.644C354.498 284.064 354.381 284.549 354.381 285.1C354.381 285.651 354.498 286.141 354.731 286.57C354.965 286.99 355.282 287.317 355.683 287.55C356.085 287.783 356.533 287.9 357.027 287.9ZM373.249 280.2V290H370.967L366.641 284.778V290H363.925V280.2H366.207L370.533 285.422V280.2H373.249Z"/>
<path d="M328.168 307L326.138 303.962L324.136 307H320.972L324.542 302.044L321.126 297.2H324.248L326.208 300.028L328.14 297.2H331.136L327.72 301.932L331.36 307H328.168ZM338.335 305.096H334.191L333.421 307H330.593L334.919 297.2H337.649L341.989 307H339.105L338.335 305.096ZM337.523 303.052L336.263 299.916L335.003 303.052H337.523ZM342.775 297.2H345.547V304.802H350.223V307H342.775V297.2ZM362.061 308.134C361.735 308.535 361.333 308.839 360.857 309.044C360.391 309.259 359.877 309.366 359.317 309.366C358.776 309.366 358.286 309.296 357.847 309.156C357.409 309.016 356.965 308.783 356.517 308.456C356.079 308.139 355.584 307.691 355.033 307.112C354.184 306.972 353.428 306.669 352.765 306.202C352.103 305.735 351.585 305.147 351.211 304.438C350.847 303.729 350.665 302.949 350.665 302.1C350.665 301.129 350.899 300.257 351.365 299.482C351.841 298.707 352.49 298.101 353.311 297.662C354.142 297.223 355.075 297.004 356.111 297.004C357.147 297.004 358.076 297.223 358.897 297.662C359.728 298.101 360.377 298.707 360.843 299.482C361.319 300.257 361.557 301.129 361.557 302.1C361.557 303.201 361.254 304.177 360.647 305.026C360.05 305.866 359.243 306.468 358.225 306.832C358.412 307.037 358.594 307.182 358.771 307.266C358.958 307.35 359.159 307.392 359.373 307.392C359.924 307.392 360.419 307.163 360.857 306.706L362.061 308.134ZM353.465 302.1C353.465 302.651 353.582 303.141 353.815 303.57C354.049 303.99 354.366 304.317 354.767 304.55C355.169 304.783 355.617 304.9 356.111 304.9C356.606 304.9 357.054 304.783 357.455 304.55C357.857 304.317 358.174 303.99 358.407 303.57C358.641 303.141 358.757 302.651 358.757 302.1C358.757 301.549 358.641 301.064 358.407 300.644C358.174 300.215 357.857 299.883 357.455 299.65C357.054 299.417 356.606 299.3 356.111 299.3C355.617 299.3 355.169 299.417 354.767 299.65C354.366 299.883 354.049 300.215 353.815 300.644C353.582 301.064 353.465 301.549 353.465 302.1ZM369.439 305.096H365.295L364.525 307H361.697L366.023 297.2H368.753L373.093 307H370.209L369.439 305.096ZM368.627 303.052L367.367 299.916L366.107 303.052H368.627ZM378.162 304.396H376.65V307H373.878V297.2H378.358C379.245 297.2 380.015 297.349 380.668 297.648C381.322 297.937 381.826 298.357 382.18 298.908C382.535 299.449 382.712 300.089 382.712 300.826C382.712 301.535 382.544 302.156 382.208 302.688C381.882 303.211 381.41 303.621 380.794 303.92L382.908 307H379.94L378.162 304.396ZM379.912 300.826C379.912 300.369 379.768 300.014 379.478 299.762C379.189 299.51 378.76 299.384 378.19 299.384H376.65V302.254H378.19C378.76 302.254 379.189 302.133 379.478 301.89C379.768 301.638 379.912 301.283 379.912 300.826ZM389.184 307.196C388.148 307.196 387.214 306.977 386.384 306.538C385.562 306.099 384.914 305.493 384.438 304.718C383.971 303.943 383.738 303.071 383.738 302.1C383.738 301.129 383.971 300.257 384.438 299.482C384.914 298.707 385.562 298.101 386.384 297.662C387.214 297.223 388.148 297.004 389.184 297.004C390.22 297.004 391.148 297.223 391.97 297.662C392.8 298.101 393.449 298.707 393.916 299.482C394.392 300.257 394.63 301.129 394.63 302.1C394.63 303.071 394.392 303.943 393.916 304.718C393.449 305.493 392.8 306.099 391.97 306.538C391.148 306.977 390.22 307.196 389.184 307.196ZM389.184 304.9C389.678 304.9 390.126 304.783 390.528 304.55C390.929 304.317 391.246 303.99 391.48 303.57C391.713 303.141 391.83 302.651 391.83 302.1C391.83 301.549 391.713 301.064 391.48 300.644C391.246 300.215 390.929 299.883 390.528 299.65C390.126 299.417 389.678 299.3 389.184 299.3C388.689 299.3 388.241 299.417 387.84 299.65C387.438 299.883 387.121 300.215 386.888 300.644C386.654 301.064 386.538 301.549 386.538 302.1C386.538 302.651 386.654 303.141 386.888 303.57C387.121 303.99 387.438 304.317 387.84 304.55C388.241 304.783 388.689 304.9 389.184 304.9ZM409.004 307L408.976 301.806L406.456 306.034H405.224L402.718 301.946V307H400.156V297.2H402.438L405.882 302.856L409.242 297.2H411.524L411.552 307H409.004ZM420.079 305.096H415.935L415.165 307H412.337L416.663 297.2H419.393L423.733 307H420.849L420.079 305.096ZM419.267 303.052L418.007 299.916L416.747 303.052H419.267ZM428.299 303.444L427.263 304.55V307H424.519V297.2H427.263V301.274L431.057 297.2H434.109L430.105 301.54L434.319 307H431.099L428.299 303.444ZM436.408 299.398H433.398V297.2H442.176V299.398H439.18V307H436.408V299.398ZM449.282 305.096H445.138L444.368 307H441.54L445.866 297.2H448.596L452.936 307H450.052L449.282 305.096ZM448.47 303.052L447.21 299.916L445.95 303.052H448.47ZM461.254 301.89C461.814 302.086 462.253 302.394 462.57 302.814C462.888 303.225 463.046 303.724 463.046 304.312C463.046 305.171 462.701 305.833 462.01 306.3C461.32 306.767 460.321 307 459.014 307H453.722V297.2H458.734C459.985 297.2 460.937 297.433 461.59 297.9C462.244 298.357 462.57 298.978 462.57 299.762C462.57 300.229 462.454 300.649 462.22 301.022C461.996 301.386 461.674 301.675 461.254 301.89ZM456.466 299.202V301.092H458.37C459.304 301.092 459.77 300.775 459.77 300.14C459.77 299.515 459.304 299.202 458.37 299.202H456.466ZM458.79 304.998C459.761 304.998 460.246 304.667 460.246 304.004C460.246 303.341 459.761 303.01 458.79 303.01H456.466V304.998H458.79ZM464.482 297.2H467.254V307H464.482V297.2Z"/>
</mask>
<path d="M324.066 282.398H321.056V280.2H329.834V282.398H326.838V290H324.066V282.398ZM335.238 290.196C333.782 290.196 332.648 289.799 331.836 289.006C331.034 288.213 330.632 287.088 330.632 285.632V280.2H333.404V285.548C333.404 287.116 334.025 287.9 335.266 287.9C336.498 287.9 337.114 287.116 337.114 285.548V280.2H339.844V285.632C339.844 287.088 339.438 288.213 338.626 289.006C337.824 289.799 336.694 290.196 335.238 290.196ZM346.006 287.396H344.494V290H341.722V280.2H346.202C347.089 280.2 347.859 280.349 348.512 280.648C349.166 280.937 349.67 281.357 350.024 281.908C350.379 282.449 350.556 283.089 350.556 283.826C350.556 284.535 350.388 285.156 350.052 285.688C349.726 286.211 349.254 286.621 348.638 286.92L350.752 290H347.784L346.006 287.396ZM347.756 283.826C347.756 283.369 347.612 283.014 347.322 282.762C347.033 282.51 346.604 282.384 346.034 282.384H344.494V285.254H346.034C346.604 285.254 347.033 285.133 347.322 284.89C347.612 284.638 347.756 284.283 347.756 283.826ZM357.027 290.196C355.991 290.196 355.058 289.977 354.227 289.538C353.406 289.099 352.757 288.493 352.281 287.718C351.815 286.943 351.581 286.071 351.581 285.1C351.581 284.129 351.815 283.257 352.281 282.482C352.757 281.707 353.406 281.101 354.227 280.662C355.058 280.223 355.991 280.004 357.027 280.004C358.063 280.004 358.992 280.223 359.813 280.662C360.644 281.101 361.293 281.707 361.759 282.482C362.235 283.257 362.473 284.129 362.473 285.1C362.473 286.071 362.235 286.943 361.759 287.718C361.293 288.493 360.644 289.099 359.813 289.538C358.992 289.977 358.063 290.196 357.027 290.196ZM357.027 287.9C357.522 287.9 357.97 287.783 358.371 287.55C358.773 287.317 359.09 286.99 359.323 286.57C359.557 286.141 359.673 285.651 359.673 285.1C359.673 284.549 359.557 284.064 359.323 283.644C359.09 283.215 358.773 282.883 358.371 282.65C357.97 282.417 357.522 282.3 357.027 282.3C356.533 282.3 356.085 282.417 355.683 282.65C355.282 282.883 354.965 283.215 354.731 283.644C354.498 284.064 354.381 284.549 354.381 285.1C354.381 285.651 354.498 286.141 354.731 286.57C354.965 286.99 355.282 287.317 355.683 287.55C356.085 287.783 356.533 287.9 357.027 287.9ZM373.249 280.2V290H370.967L366.641 284.778V290H363.925V280.2H366.207L370.533 285.422V280.2H373.249Z" fill="#072E92"/>
<path d="M328.168 307L326.138 303.962L324.136 307H320.972L324.542 302.044L321.126 297.2H324.248L326.208 300.028L328.14 297.2H331.136L327.72 301.932L331.36 307H328.168ZM338.335 305.096H334.191L333.421 307H330.593L334.919 297.2H337.649L341.989 307H339.105L338.335 305.096ZM337.523 303.052L336.263 299.916L335.003 303.052H337.523ZM342.775 297.2H345.547V304.802H350.223V307H342.775V297.2ZM362.061 308.134C361.735 308.535 361.333 308.839 360.857 309.044C360.391 309.259 359.877 309.366 359.317 309.366C358.776 309.366 358.286 309.296 357.847 309.156C357.409 309.016 356.965 308.783 356.517 308.456C356.079 308.139 355.584 307.691 355.033 307.112C354.184 306.972 353.428 306.669 352.765 306.202C352.103 305.735 351.585 305.147 351.211 304.438C350.847 303.729 350.665 302.949 350.665 302.1C350.665 301.129 350.899 300.257 351.365 299.482C351.841 298.707 352.49 298.101 353.311 297.662C354.142 297.223 355.075 297.004 356.111 297.004C357.147 297.004 358.076 297.223 358.897 297.662C359.728 298.101 360.377 298.707 360.843 299.482C361.319 300.257 361.557 301.129 361.557 302.1C361.557 303.201 361.254 304.177 360.647 305.026C360.05 305.866 359.243 306.468 358.225 306.832C358.412 307.037 358.594 307.182 358.771 307.266C358.958 307.35 359.159 307.392 359.373 307.392C359.924 307.392 360.419 307.163 360.857 306.706L362.061 308.134ZM353.465 302.1C353.465 302.651 353.582 303.141 353.815 303.57C354.049 303.99 354.366 304.317 354.767 304.55C355.169 304.783 355.617 304.9 356.111 304.9C356.606 304.9 357.054 304.783 357.455 304.55C357.857 304.317 358.174 303.99 358.407 303.57C358.641 303.141 358.757 302.651 358.757 302.1C358.757 301.549 358.641 301.064 358.407 300.644C358.174 300.215 357.857 299.883 357.455 299.65C357.054 299.417 356.606 299.3 356.111 299.3C355.617 299.3 355.169 299.417 354.767 299.65C354.366 299.883 354.049 300.215 353.815 300.644C353.582 301.064 353.465 301.549 353.465 302.1ZM369.439 305.096H365.295L364.525 307H361.697L366.023 297.2H368.753L373.093 307H370.209L369.439 305.096ZM368.627 303.052L367.367 299.916L366.107 303.052H368.627ZM378.162 304.396H376.65V307H373.878V297.2H378.358C379.245 297.2 380.015 297.349 380.668 297.648C381.322 297.937 381.826 298.357 382.18 298.908C382.535 299.449 382.712 300.089 382.712 300.826C382.712 301.535 382.544 302.156 382.208 302.688C381.882 303.211 381.41 303.621 380.794 303.92L382.908 307H379.94L378.162 304.396ZM379.912 300.826C379.912 300.369 379.768 300.014 379.478 299.762C379.189 299.51 378.76 299.384 378.19 299.384H376.65V302.254H378.19C378.76 302.254 379.189 302.133 379.478 301.89C379.768 301.638 379.912 301.283 379.912 300.826ZM389.184 307.196C388.148 307.196 387.214 306.977 386.384 306.538C385.562 306.099 384.914 305.493 384.438 304.718C383.971 303.943 383.738 303.071 383.738 302.1C383.738 301.129 383.971 300.257 384.438 299.482C384.914 298.707 385.562 298.101 386.384 297.662C387.214 297.223 388.148 297.004 389.184 297.004C390.22 297.004 391.148 297.223 391.97 297.662C392.8 298.101 393.449 298.707 393.916 299.482C394.392 300.257 394.63 301.129 394.63 302.1C394.63 303.071 394.392 303.943 393.916 304.718C393.449 305.493 392.8 306.099 391.97 306.538C391.148 306.977 390.22 307.196 389.184 307.196ZM389.184 304.9C389.678 304.9 390.126 304.783 390.528 304.55C390.929 304.317 391.246 303.99 391.48 303.57C391.713 303.141 391.83 302.651 391.83 302.1C391.83 301.549 391.713 301.064 391.48 300.644C391.246 300.215 390.929 299.883 390.528 299.65C390.126 299.417 389.678 299.3 389.184 299.3C388.689 299.3 388.241 299.417 387.84 299.65C387.438 299.883 387.121 300.215 386.888 300.644C386.654 301.064 386.538 301.549 386.538 302.1C386.538 302.651 386.654 303.141 386.888 303.57C387.121 303.99 387.438 304.317 387.84 304.55C388.241 304.783 388.689 304.9 389.184 304.9ZM409.004 307L408.976 301.806L406.456 306.034H405.224L402.718 301.946V307H400.156V297.2H402.438L405.882 302.856L409.242 297.2H411.524L411.552 307H409.004ZM420.079 305.096H415.935L415.165 307H412.337L416.663 297.2H419.393L423.733 307H420.849L420.079 305.096ZM419.267 303.052L418.007 299.916L416.747 303.052H419.267ZM428.299 303.444L427.263 304.55V307H424.519V297.2H427.263V301.274L431.057 297.2H434.109L430.105 301.54L434.319 307H431.099L428.299 303.444ZM436.408 299.398H433.398V297.2H442.176V299.398H439.18V307H436.408V299.398ZM449.282 305.096H445.138L444.368 307H441.54L445.866 297.2H448.596L452.936 307H450.052L449.282 305.096ZM448.47 303.052L447.21 299.916L445.95 303.052H448.47ZM461.254 301.89C461.814 302.086 462.253 302.394 462.57 302.814C462.888 303.225 463.046 303.724 463.046 304.312C463.046 305.171 462.701 305.833 462.01 306.3C461.32 306.767 460.321 307 459.014 307H453.722V297.2H458.734C459.985 297.2 460.937 297.433 461.59 297.9C462.244 298.357 462.57 298.978 462.57 299.762C462.57 300.229 462.454 300.649 462.22 301.022C461.996 301.386 461.674 301.675 461.254 301.89ZM456.466 299.202V301.092H458.37C459.304 301.092 459.77 300.775 459.77 300.14C459.77 299.515 459.304 299.202 458.37 299.202H456.466ZM458.79 304.998C459.761 304.998 460.246 304.667 460.246 304.004C460.246 303.341 459.761 303.01 458.79 303.01H456.466V304.998H458.79ZM464.482 297.2H467.254V307H464.482V297.2Z" fill="#CAA77F"/>
<path d="M324.066 282.398H325.066V281.398H324.066V282.398ZM321.056 282.398H320.056V283.398H321.056V282.398ZM321.056 280.2V279.2H320.056V280.2H321.056ZM329.834 280.2H330.834V279.2H329.834V280.2ZM329.834 282.398V283.398H330.834V282.398H329.834ZM326.838 282.398V281.398H325.838V282.398H326.838ZM326.838 290V291H327.838V290H326.838ZM324.066 290H323.066V291H324.066V290ZM324.066 282.398V281.398H321.056V282.398V283.398H324.066V282.398ZM321.056 282.398H322.056V280.2H321.056H320.056V282.398H321.056ZM321.056 280.2V281.2H329.834V280.2V279.2H321.056V280.2ZM329.834 280.2H328.834V282.398H329.834H330.834V280.2H329.834ZM329.834 282.398V281.398H326.838V282.398V283.398H329.834V282.398ZM326.838 282.398H325.838V290H326.838H327.838V282.398H326.838ZM326.838 290V289H324.066V290V291H326.838V290ZM324.066 290H325.066V282.398H324.066H323.066V290H324.066ZM331.836 289.006L331.133 289.717L331.137 289.721L331.836 289.006ZM330.632 280.2V279.2H329.632V280.2H330.632ZM333.404 280.2H334.404V279.2H333.404V280.2ZM337.114 280.2V279.2H336.114V280.2H337.114ZM339.844 280.2H340.844V279.2H339.844V280.2ZM338.626 289.006L337.927 288.291L337.923 288.295L338.626 289.006ZM335.238 290.196V289.196C333.967 289.196 333.112 288.854 332.535 288.291L331.836 289.006L331.137 289.721C332.185 290.745 333.598 291.196 335.238 291.196V290.196ZM331.836 289.006L332.539 288.295C331.978 287.74 331.632 286.902 331.632 285.632H330.632H329.632C329.632 287.274 330.09 288.686 331.133 289.717L331.836 289.006ZM330.632 285.632H331.632V280.2H330.632H329.632V285.632H330.632ZM330.632 280.2V281.2H333.404V280.2V279.2H330.632V280.2ZM333.404 280.2H332.404V285.548H333.404H334.404V280.2H333.404ZM333.404 285.548H332.404C332.404 286.437 332.576 287.288 333.086 287.933C333.631 288.621 334.421 288.9 335.266 288.9V287.9V286.9C334.87 286.9 334.729 286.787 334.654 286.691C334.543 286.552 334.404 286.227 334.404 285.548H333.404ZM335.266 287.9V288.9C336.109 288.9 336.897 288.62 337.439 287.93C337.945 287.286 338.114 286.436 338.114 285.548H337.114H336.114C336.114 286.228 335.976 286.554 335.866 286.694C335.792 286.788 335.655 286.9 335.266 286.9V287.9ZM337.114 285.548H338.114V280.2H337.114H336.114V285.548H337.114ZM337.114 280.2V281.2H339.844V280.2V279.2H337.114V280.2ZM339.844 280.2H338.844V285.632H339.844H340.844V280.2H339.844ZM339.844 285.632H338.844C338.844 286.899 338.496 287.735 337.927 288.291L338.626 289.006L339.325 289.721C340.38 288.69 340.844 287.277 340.844 285.632H339.844ZM338.626 289.006L337.923 288.295C337.358 288.854 336.511 289.196 335.238 289.196V290.196V291.196C336.878 291.196 338.29 290.745 339.329 289.717L338.626 289.006ZM346.006 287.396L346.832 286.832L346.534 286.396H346.006V287.396ZM344.494 287.396V286.396H343.494V287.396H344.494ZM344.494 290V291H345.494V290H344.494ZM341.722 290H340.722V291H341.722V290ZM341.722 280.2V279.2H340.722V280.2H341.722ZM348.512 280.648L348.096 281.558L348.107 281.562L348.512 280.648ZM350.024 281.908L349.183 282.449L349.188 282.456L350.024 281.908ZM350.052 285.688L349.207 285.154L349.204 285.158L350.052 285.688ZM348.638 286.92L348.202 286.02L347.156 286.527L347.814 287.486L348.638 286.92ZM350.752 290V291H352.651L351.577 289.434L350.752 290ZM347.784 290L346.958 290.564L347.256 291H347.784V290ZM344.494 282.384V281.384H343.494V282.384H344.494ZM344.494 285.254H343.494V286.254H344.494V285.254ZM347.322 284.89L347.965 285.656L347.972 285.65L347.979 285.644L347.322 284.89ZM346.006 287.396V286.396H344.494V287.396V288.396H346.006V287.396ZM344.494 287.396H343.494V290H344.494H345.494V287.396H344.494ZM344.494 290V289H341.722V290V291H344.494V290ZM341.722 290H342.722V280.2H341.722H340.722V290H341.722ZM341.722 280.2V281.2H346.202V280.2V279.2H341.722V280.2ZM346.202 280.2V281.2C346.978 281.2 347.6 281.331 348.096 281.557L348.512 280.648L348.928 279.739C348.117 279.368 347.2 279.2 346.202 279.2V280.2ZM348.512 280.648L348.107 281.562C348.599 281.78 348.944 282.078 349.183 282.449L350.024 281.908L350.865 281.367C350.395 280.637 349.732 280.095 348.917 279.734L348.512 280.648ZM350.024 281.908L349.188 282.456C349.421 282.813 349.556 283.255 349.556 283.826H350.556H351.556C351.556 282.922 351.336 282.086 350.861 281.36L350.024 281.908ZM350.556 283.826H349.556C349.556 284.371 349.429 284.802 349.207 285.154L350.052 285.688L350.898 286.222C351.347 285.51 351.556 284.7 351.556 283.826H350.556ZM350.052 285.688L349.204 285.158C348.988 285.504 348.668 285.794 348.202 286.02L348.638 286.92L349.074 287.82C349.84 287.448 350.463 286.918 350.9 286.218L350.052 285.688ZM348.638 286.92L347.814 287.486L349.928 290.566L350.752 290L351.577 289.434L349.463 286.354L348.638 286.92ZM350.752 290V289H347.784V290V291H350.752V290ZM347.784 290L348.61 289.436L346.832 286.832L346.006 287.396L345.18 287.96L346.958 290.564L347.784 290ZM347.756 283.826H348.756C348.756 283.14 348.528 282.486 347.979 282.008L347.322 282.762L346.665 283.516C346.695 283.542 346.756 283.597 346.756 283.826H347.756ZM347.322 282.762L347.979 282.008C347.437 281.536 346.731 281.384 346.034 281.384V282.384V283.384C346.476 283.384 346.629 283.484 346.665 283.516L347.322 282.762ZM346.034 282.384V281.384H344.494V282.384V283.384H346.034V282.384ZM344.494 282.384H343.494V285.254H344.494H345.494V282.384H344.494ZM344.494 285.254V286.254H346.034V285.254V284.254H344.494V285.254ZM346.034 285.254V286.254C346.724 286.254 347.424 286.11 347.965 285.656L347.322 284.89L346.68 284.124C346.642 284.155 346.483 284.254 346.034 284.254V285.254ZM347.322 284.89L347.979 285.644C348.528 285.166 348.756 284.512 348.756 283.826H347.756H346.756C346.756 284.055 346.695 284.11 346.665 284.136L347.322 284.89ZM354.227 289.538L353.756 290.42L353.76 290.422L354.227 289.538ZM352.281 287.718L351.425 288.234L351.429 288.242L352.281 287.718ZM352.281 282.482L351.429 281.958L351.425 281.966L352.281 282.482ZM354.227 280.662L353.76 279.778L353.756 279.78L354.227 280.662ZM359.813 280.662L359.342 281.544L359.346 281.546L359.813 280.662ZM361.759 282.482L360.903 282.998L360.907 283.006L361.759 282.482ZM361.759 287.718L360.907 287.194L360.903 287.202L361.759 287.718ZM359.813 289.538L359.346 288.654L359.342 288.656L359.813 289.538ZM358.371 287.55L358.874 288.415L358.874 288.415L358.371 287.55ZM359.323 286.57L360.198 287.056L360.202 287.048L359.323 286.57ZM359.323 283.644L358.445 284.122L358.449 284.13L359.323 283.644ZM358.371 282.65L358.874 281.785L358.874 281.785L358.371 282.65ZM355.683 282.65L355.181 281.785L355.181 281.785L355.683 282.65ZM354.731 283.644L355.606 284.13L355.61 284.122L354.731 283.644ZM354.731 286.57L353.853 287.048L353.857 287.056L354.731 286.57ZM355.683 287.55L356.186 286.685L356.186 286.685L355.683 287.55ZM357.027 290.196V289.196C356.137 289.196 355.367 289.009 354.694 288.654L354.227 289.538L353.76 290.422C354.749 290.945 355.846 291.196 357.027 291.196V290.196ZM354.227 289.538L354.699 288.656C354.03 288.299 353.514 287.814 353.133 287.194L352.281 287.718L351.429 288.242C352.001 289.171 352.782 289.9 353.756 290.42L354.227 289.538ZM352.281 287.718L353.138 287.202C352.772 286.595 352.581 285.903 352.581 285.1H351.581H350.581C350.581 286.239 350.857 287.292 351.425 288.234L352.281 287.718ZM351.581 285.1H352.581C352.581 284.297 352.772 283.605 353.138 282.998L352.281 282.482L351.425 281.966C350.857 282.908 350.581 283.961 350.581 285.1H351.581ZM352.281 282.482L353.133 283.006C353.514 282.386 354.03 281.901 354.699 281.544L354.227 280.662L353.756 279.78C352.782 280.3 352.001 281.029 351.429 281.958L352.281 282.482ZM354.227 280.662L354.694 281.546C355.367 281.191 356.137 281.004 357.027 281.004V280.004V279.004C355.846 279.004 354.749 279.255 353.76 279.778L354.227 280.662ZM357.027 280.004V281.004C357.918 281.004 358.682 281.191 359.342 281.544L359.813 280.662L360.285 279.78C359.303 279.255 358.209 279.004 357.027 279.004V280.004ZM359.813 280.662L359.346 281.546C360.023 281.903 360.534 282.385 360.903 282.998L361.759 282.482L362.616 281.966C362.052 281.029 361.266 280.298 360.28 279.778L359.813 280.662ZM361.759 282.482L360.907 283.006C361.28 283.612 361.473 284.301 361.473 285.1H362.473H363.473C363.473 283.958 363.191 282.901 362.611 281.958L361.759 282.482ZM362.473 285.1H361.473C361.473 285.899 361.28 286.588 360.907 287.194L361.759 287.718L362.611 288.242C363.191 287.299 363.473 286.242 363.473 285.1H362.473ZM361.759 287.718L360.903 287.202C360.534 287.815 360.023 288.297 359.346 288.654L359.813 289.538L360.28 290.422C361.266 289.902 362.052 289.171 362.616 288.234L361.759 287.718ZM359.813 289.538L359.342 288.656C358.682 289.009 357.918 289.196 357.027 289.196V290.196V291.196C358.209 291.196 359.303 290.945 360.285 290.42L359.813 289.538ZM357.027 287.9V288.9C357.687 288.9 358.31 288.742 358.874 288.415L358.371 287.55L357.869 286.685C357.63 286.824 357.358 286.9 357.027 286.9V287.9ZM358.371 287.55L358.874 288.415C359.437 288.087 359.88 287.627 360.198 287.056L359.323 286.57L358.449 286.084C358.3 286.353 358.109 286.546 357.869 286.685L358.371 287.55ZM359.323 286.57L360.202 287.048C360.525 286.454 360.673 285.796 360.673 285.1H359.673H358.673C358.673 285.505 358.589 285.827 358.445 286.092L359.323 286.57ZM359.673 285.1H360.673C360.673 284.405 360.525 283.747 360.198 283.158L359.323 283.644L358.449 284.13C358.589 284.381 358.673 284.694 358.673 285.1H359.673ZM359.323 283.644L360.202 283.166C359.886 282.585 359.442 282.116 358.874 281.785L358.371 282.65L357.869 283.515C358.103 283.651 358.294 283.844 358.445 284.122L359.323 283.644ZM358.371 282.65L358.874 281.785C358.31 281.458 357.687 281.3 357.027 281.3V282.3V283.3C357.358 283.3 357.63 283.376 357.869 283.515L358.371 282.65ZM357.027 282.3V281.3C356.368 281.3 355.745 281.458 355.181 281.785L355.683 282.65L356.186 283.515C356.425 283.376 356.697 283.3 357.027 283.3V282.3ZM355.683 282.65L355.181 281.785C354.613 282.116 354.169 282.585 353.853 283.166L354.731 283.644L355.61 284.122C355.761 283.844 355.952 283.651 356.186 283.515L355.683 282.65ZM354.731 283.644L353.857 283.158C353.53 283.747 353.381 284.405 353.381 285.1H354.381H355.381C355.381 284.694 355.466 284.381 355.606 284.13L354.731 283.644ZM354.381 285.1H353.381C353.381 285.796 353.53 286.454 353.853 287.048L354.731 286.57L355.61 286.092C355.466 285.827 355.381 285.505 355.381 285.1H354.381ZM354.731 286.57L353.857 287.056C354.175 287.627 354.618 288.087 355.181 288.415L355.683 287.55L356.186 286.685C355.946 286.546 355.755 286.353 355.606 286.084L354.731 286.57ZM355.683 287.55L355.181 288.415C355.745 288.742 356.368 288.9 357.027 288.9V287.9V286.9C356.697 286.9 356.425 286.824 356.186 286.685L355.683 287.55ZM373.249 280.2H374.249V279.2H373.249V280.2ZM373.249 290V291H374.249V290H373.249ZM370.967 290L370.197 290.638L370.497 291H370.967V290ZM366.641 284.778L367.411 284.14L365.641 282.003V284.778H366.641ZM366.641 290V291H367.641V290H366.641ZM363.925 290H362.925V291H363.925V290ZM363.925 280.2V279.2H362.925V280.2H363.925ZM366.207 280.2L366.977 279.562L366.677 279.2H366.207V280.2ZM370.533 285.422L369.763 286.06L371.533 288.197V285.422H370.533ZM370.533 280.2V279.2H369.533V280.2H370.533ZM373.249 280.2H372.249V290H373.249H374.249V280.2H373.249ZM373.249 290V289H370.967V290V291H373.249V290ZM370.967 290L371.737 289.362L367.411 284.14L366.641 284.778L365.871 285.416L370.197 290.638L370.967 290ZM366.641 284.778H365.641V290H366.641H367.641V284.778H366.641ZM366.641 290V289H363.925V290V291H366.641V290ZM363.925 290H364.925V280.2H363.925H362.925V290H363.925ZM363.925 280.2V281.2H366.207V280.2V279.2H363.925V280.2ZM366.207 280.2L365.437 280.838L369.763 286.06L370.533 285.422L371.303 284.784L366.977 279.562L366.207 280.2ZM370.533 285.422H371.533V280.2H370.533H369.533V285.422H370.533ZM370.533 280.2V281.2H373.249V280.2V279.2H370.533V280.2ZM328.168 307L327.337 307.556L327.633 308H328.168V307ZM326.138 303.962L326.969 303.406L326.132 302.153L325.303 303.412L326.138 303.962ZM324.136 307V308H324.675L324.971 307.55L324.136 307ZM320.972 307L320.161 306.416L319.019 308H320.972V307ZM324.542 302.044L325.353 302.628L325.77 302.05L325.359 301.468L324.542 302.044ZM321.126 297.2V296.2H319.197L320.309 297.776L321.126 297.2ZM324.248 297.2L325.07 296.63L324.772 296.2H324.248V297.2ZM326.208 300.028L325.386 300.598L326.214 301.792L327.034 300.592L326.208 300.028ZM328.14 297.2V296.2H327.612L327.314 296.636L328.14 297.2ZM331.136 297.2L331.947 297.785L333.091 296.2H331.136V297.2ZM327.72 301.932L326.909 301.347L326.488 301.931L326.908 302.515L327.72 301.932ZM331.36 307V308H333.309L332.172 306.417L331.36 307ZM328.168 307L328.999 306.444L326.969 303.406L326.138 303.962L325.307 304.518L327.337 307.556L328.168 307ZM326.138 303.962L325.303 303.412L323.301 306.45L324.136 307L324.971 307.55L326.973 304.512L326.138 303.962ZM324.136 307V306H320.972V307V308H324.136V307ZM320.972 307L321.783 307.584L325.353 302.628L324.542 302.044L323.731 301.46L320.161 306.416L320.972 307ZM324.542 302.044L325.359 301.468L321.943 296.624L321.126 297.2L320.309 297.776L323.725 302.62L324.542 302.044ZM321.126 297.2V298.2H324.248V297.2V296.2H321.126V297.2ZM324.248 297.2L323.426 297.77L325.386 300.598L326.208 300.028L327.03 299.458L325.07 296.63L324.248 297.2ZM326.208 300.028L327.034 300.592L328.966 297.764L328.14 297.2L327.314 296.636L325.382 299.464L326.208 300.028ZM328.14 297.2V298.2H331.136V297.2V296.2H328.14V297.2ZM331.136 297.2L330.325 296.615L326.909 301.347L327.72 301.932L328.531 302.517L331.947 297.785L331.136 297.2ZM327.72 301.932L326.908 302.515L330.548 307.583L331.36 307L332.172 306.417L328.532 301.349L327.72 301.932ZM331.36 307V306H328.168V307V308H331.36V307ZM338.335 305.096L339.262 304.721L339.009 304.096H338.335V305.096ZM334.191 305.096V304.096H333.517L333.264 304.721L334.191 305.096ZM333.421 307V308H334.095L334.348 307.375L333.421 307ZM330.593 307L329.678 306.596L329.059 308H330.593V307ZM334.919 297.2V296.2H334.267L334.004 296.796L334.919 297.2ZM337.649 297.2L338.563 296.795L338.3 296.2H337.649V297.2ZM341.989 307V308H343.526L342.903 306.595L341.989 307ZM339.105 307L338.178 307.375L338.431 308H339.105V307ZM337.523 303.052V304.052H339.003L338.451 302.679L337.523 303.052ZM336.263 299.916L337.191 299.543L336.263 297.234L335.335 299.543L336.263 299.916ZM335.003 303.052L334.075 302.679L333.524 304.052H335.003V303.052ZM338.335 305.096V304.096H334.191V305.096V306.096H338.335V305.096ZM334.191 305.096L333.264 304.721L332.494 306.625L333.421 307L334.348 307.375L335.118 305.471L334.191 305.096ZM333.421 307V306H330.593V307V308H333.421V307ZM330.593 307L331.508 307.404L335.834 297.604L334.919 297.2L334.004 296.796L329.678 306.596L330.593 307ZM334.919 297.2V298.2H337.649V297.2V296.2H334.919V297.2ZM337.649 297.2L336.735 297.605L341.075 307.405L341.989 307L342.903 306.595L338.563 296.795L337.649 297.2ZM341.989 307V306H339.105V307V308H341.989V307ZM339.105 307L340.032 306.625L339.262 304.721L338.335 305.096L337.408 305.471L338.178 307.375L339.105 307ZM337.523 303.052L338.451 302.679L337.191 299.543L336.263 299.916L335.335 300.289L336.595 303.425L337.523 303.052ZM336.263 299.916L335.335 299.543L334.075 302.679L335.003 303.052L335.931 303.425L337.191 300.289L336.263 299.916ZM335.003 303.052V304.052H337.523V303.052V302.052H335.003V303.052ZM342.775 297.2V296.2H341.775V297.2H342.775ZM345.547 297.2H346.547V296.2H345.547V297.2ZM345.547 304.802H344.547V305.802H345.547V304.802ZM350.223 304.802H351.223V303.802H350.223V304.802ZM350.223 307V308H351.223V307H350.223ZM342.775 307H341.775V308H342.775V307ZM342.775 297.2V298.2H345.547V297.2V296.2H342.775V297.2ZM345.547 297.2H344.547V304.802H345.547H346.547V297.2H345.547ZM345.547 304.802V305.802H350.223V304.802V303.802H345.547V304.802ZM350.223 304.802H349.223V307H350.223H351.223V304.802H350.223ZM350.223 307V306H342.775V307V308H350.223V307ZM342.775 307H343.775V297.2H342.775H341.775V307H342.775ZM362.061 308.134L362.837 308.765L363.36 308.123L362.826 307.489L362.061 308.134ZM360.857 309.044L360.461 308.126L360.45 308.131L360.44 308.136L360.857 309.044ZM357.847 309.156L358.151 308.203L358.151 308.203L357.847 309.156ZM356.517 308.456L357.107 307.648L357.104 307.646L356.517 308.456ZM355.033 307.112L355.758 306.423L355.527 306.18L355.196 306.125L355.033 307.112ZM352.765 306.202L352.19 307.02L352.765 306.202ZM351.211 304.438L350.322 304.895L350.327 304.904L351.211 304.438ZM351.365 299.482L350.513 298.958L350.509 298.966L351.365 299.482ZM353.311 297.662L352.844 296.778L352.84 296.78L353.311 297.662ZM358.897 297.662L358.426 298.544L358.43 298.546L358.897 297.662ZM360.843 299.482L359.987 299.998L359.991 300.006L360.843 299.482ZM360.647 305.026L359.834 304.445L359.832 304.446L360.647 305.026ZM358.225 306.832L357.889 305.89L356.477 306.395L357.486 307.505L358.225 306.832ZM358.771 307.266L358.343 308.17L358.352 308.174L358.361 308.178L358.771 307.266ZM360.857 306.706L361.622 306.061L360.905 305.211L360.136 306.014L360.857 306.706ZM353.815 303.57L352.937 304.048L352.941 304.056L353.815 303.57ZM354.767 304.55L355.27 303.685L355.27 303.685L354.767 304.55ZM357.455 304.55L357.958 305.415L357.958 305.415L357.455 304.55ZM358.407 303.57L359.282 304.056L359.286 304.048L358.407 303.57ZM358.407 300.644L357.529 301.122L357.533 301.13L358.407 300.644ZM357.455 299.65L357.958 298.785L357.958 298.785L357.455 299.65ZM354.767 299.65L354.265 298.785L354.265 298.785L354.767 299.65ZM353.815 300.644L354.69 301.13L354.694 301.122L353.815 300.644ZM362.061 308.134L361.286 307.503C361.061 307.779 360.79 307.984 360.461 308.126L360.857 309.044L361.254 309.962C361.877 309.693 362.409 309.292 362.837 308.765L362.061 308.134ZM360.857 309.044L360.44 308.136C360.115 308.285 359.746 308.366 359.317 308.366V309.366V310.366C360.009 310.366 360.666 310.233 361.275 309.952L360.857 309.044ZM359.317 309.366V308.366C358.862 308.366 358.476 308.307 358.151 308.203L357.847 309.156L357.543 310.109C358.096 310.285 358.691 310.366 359.317 310.366V309.366ZM357.847 309.156L358.151 308.203C357.833 308.102 357.485 307.924 357.107 307.648L356.517 308.456L355.928 309.264C356.446 309.641 356.984 309.93 357.543 310.109L357.847 309.156ZM356.517 308.456L357.104 307.646C356.732 307.377 356.284 306.976 355.758 306.423L355.033 307.112L354.309 307.801C354.884 308.406 355.426 308.9 355.931 309.266L356.517 308.456ZM355.033 307.112L355.196 306.125C354.486 306.008 353.873 305.759 353.341 305.384L352.765 306.202L352.19 307.02C352.983 307.578 353.882 307.936 354.871 308.099L355.033 307.112ZM352.765 306.202L353.341 305.384C352.807 305.008 352.395 304.54 352.096 303.972L351.211 304.438L350.327 304.904C350.774 305.755 351.399 306.463 352.19 307.02L352.765 306.202ZM351.211 304.438L352.101 303.981C351.814 303.423 351.665 302.801 351.665 302.1H350.665H349.665C349.665 303.097 349.881 304.035 350.322 304.895L351.211 304.438ZM350.665 302.1H351.665C351.665 301.297 351.856 300.605 352.222 299.998L351.365 299.482L350.509 298.966C349.941 299.908 349.665 300.961 349.665 302.1H350.665ZM351.365 299.482L352.217 300.006C352.598 299.386 353.114 298.901 353.783 298.544L353.311 297.662L352.84 296.78C351.866 297.3 351.085 298.029 350.513 298.958L351.365 299.482ZM353.311 297.662L353.778 298.546C354.451 298.191 355.221 298.004 356.111 298.004V297.004V296.004C354.93 296.004 353.833 296.255 352.844 296.778L353.311 297.662ZM356.111 297.004V298.004C357.002 298.004 357.766 298.191 358.426 298.544L358.897 297.662L359.369 296.78C358.387 296.255 357.293 296.004 356.111 296.004V297.004ZM358.897 297.662L358.43 298.546C359.107 298.903 359.618 299.385 359.987 299.998L360.843 299.482L361.7 298.966C361.136 298.029 360.35 297.298 359.364 296.778L358.897 297.662ZM360.843 299.482L359.991 300.006C360.364 300.612 360.557 301.301 360.557 302.1H361.557H362.557C362.557 300.958 362.275 299.901 361.695 298.958L360.843 299.482ZM361.557 302.1H360.557C360.557 303.005 360.312 303.775 359.834 304.445L360.647 305.026L361.461 305.607C362.196 304.579 362.557 303.398 362.557 302.1H361.557ZM360.647 305.026L359.832 304.446C359.36 305.111 358.723 305.592 357.889 305.89L358.225 306.832L358.562 307.774C359.762 307.344 360.741 306.621 361.462 305.606L360.647 305.026ZM358.225 306.832L357.486 307.505C357.726 307.77 358.01 308.012 358.343 308.17L358.771 307.266L359.2 306.362C359.178 306.352 359.098 306.305 358.965 306.159L358.225 306.832ZM358.771 307.266L358.361 308.178C358.683 308.323 359.024 308.392 359.373 308.392V307.392V306.392C359.293 306.392 359.233 306.377 359.182 306.354L358.771 307.266ZM359.373 307.392V308.392C360.238 308.392 360.983 308.02 361.579 307.398L360.857 306.706L360.136 306.014C359.855 306.307 359.61 306.392 359.373 306.392V307.392ZM360.857 306.706L360.093 307.351L361.297 308.779L362.061 308.134L362.826 307.489L361.622 306.061L360.857 306.706ZM353.465 302.1H352.465C352.465 302.796 352.614 303.454 352.937 304.048L353.815 303.57L354.694 303.092C354.55 302.827 354.465 302.505 354.465 302.1H353.465ZM353.815 303.57L352.941 304.056C353.259 304.627 353.702 305.087 354.265 305.415L354.767 304.55L355.27 303.685C355.03 303.546 354.839 303.353 354.69 303.084L353.815 303.57ZM354.767 304.55L354.265 305.415C354.829 305.742 355.452 305.9 356.111 305.9V304.9V303.9C355.781 303.9 355.509 303.824 355.27 303.685L354.767 304.55ZM356.111 304.9V305.9C356.771 305.9 357.394 305.742 357.958 305.415L357.455 304.55L356.953 303.685C356.714 303.824 356.442 303.9 356.111 303.9V304.9ZM357.455 304.55L357.958 305.415C358.521 305.087 358.964 304.627 359.282 304.056L358.407 303.57L357.533 303.084C357.384 303.353 357.193 303.546 356.953 303.685L357.455 304.55ZM358.407 303.57L359.286 304.048C359.609 303.454 359.757 302.796 359.757 302.1H358.757H357.757C357.757 302.505 357.673 302.827 357.529 303.092L358.407 303.57ZM358.757 302.1H359.757C359.757 301.405 359.609 300.747 359.282 300.158L358.407 300.644L357.533 301.13C357.673 301.381 357.757 301.694 357.757 302.1H358.757ZM358.407 300.644L359.286 300.166C358.97 299.585 358.526 299.116 357.958 298.785L357.455 299.65L356.953 300.515C357.187 300.651 357.378 300.844 357.529 301.122L358.407 300.644ZM357.455 299.65L357.958 298.785C357.394 298.458 356.771 298.3 356.111 298.3V299.3V300.3C356.442 300.3 356.714 300.376 356.953 300.515L357.455 299.65ZM356.111 299.3V298.3C355.452 298.3 354.829 298.458 354.265 298.785L354.767 299.65L355.27 300.515C355.509 300.376 355.781 300.3 356.111 300.3V299.3ZM354.767 299.65L354.265 298.785C353.697 299.116 353.253 299.585 352.937 300.166L353.815 300.644L354.694 301.122C354.845 300.844 355.036 300.651 355.27 300.515L354.767 299.65ZM353.815 300.644L352.941 300.158C352.614 300.747 352.465 301.405 352.465 302.1H353.465H354.465C354.465 301.694 354.55 301.381 354.69 301.13L353.815 300.644ZM369.439 305.096L370.366 304.721L370.113 304.096H369.439V305.096ZM365.295 305.096V304.096H364.62L364.368 304.721L365.295 305.096ZM364.525 307V308H365.199L365.452 307.375L364.525 307ZM361.697 307L360.782 306.596L360.162 308H361.697V307ZM366.023 297.2V296.2H365.371L365.108 296.796L366.023 297.2ZM368.753 297.2L369.667 296.795L369.403 296.2H368.753V297.2ZM373.093 307V308H374.629L374.007 306.595L373.093 307ZM370.209 307L369.282 307.375L369.534 308H370.209V307ZM368.627 303.052V304.052H370.106L369.554 302.679L368.627 303.052ZM367.367 299.916L368.294 299.543L367.367 297.234L366.439 299.543L367.367 299.916ZM366.107 303.052L365.179 302.679L364.627 304.052H366.107V303.052ZM369.439 305.096V304.096H365.295V305.096V306.096H369.439V305.096ZM365.295 305.096L364.368 304.721L363.598 306.625L364.525 307L365.452 307.375L366.222 305.471L365.295 305.096ZM364.525 307V306H361.697V307V308H364.525V307ZM361.697 307L362.611 307.404L366.937 297.604L366.023 297.2L365.108 296.796L360.782 306.596L361.697 307ZM366.023 297.2V298.2H368.753V297.2V296.2H366.023V297.2ZM368.753 297.2L367.838 297.605L372.178 307.405L373.093 307L374.007 306.595L369.667 296.795L368.753 297.2ZM373.093 307V306H370.209V307V308H373.093V307ZM370.209 307L371.136 306.625L370.366 304.721L369.439 305.096L368.512 305.471L369.282 307.375L370.209 307ZM368.627 303.052L369.554 302.679L368.294 299.543L367.367 299.916L366.439 300.289L367.699 303.425L368.627 303.052ZM367.367 299.916L366.439 299.543L365.179 302.679L366.107 303.052L367.034 303.425L368.294 300.289L367.367 299.916ZM366.107 303.052V304.052H368.627V303.052V302.052H366.107V303.052ZM378.162 304.396L378.988 303.832L378.691 303.396H378.162V304.396ZM376.65 304.396V303.396H375.65V304.396H376.65ZM376.65 307V308H377.65V307H376.65ZM373.878 307H372.878V308H373.878V307ZM373.878 297.2V296.2H372.878V297.2H373.878ZM380.668 297.648L380.253 298.558L380.264 298.562L380.668 297.648ZM382.18 298.908L381.34 299.449L381.344 299.456L382.18 298.908ZM382.208 302.688L381.363 302.154L381.36 302.158L382.208 302.688ZM380.794 303.92L380.358 303.02L379.312 303.527L379.97 304.486L380.794 303.92ZM382.908 307V308H384.808L383.733 306.434L382.908 307ZM379.94 307L379.115 307.564L379.412 308H379.94V307ZM376.65 299.384V298.384H375.65V299.384H376.65ZM376.65 302.254H375.65V303.254H376.65V302.254ZM379.478 301.89L380.121 302.656L380.128 302.65L380.135 302.644L379.478 301.89ZM378.162 304.396V303.396H376.65V304.396V305.396H378.162V304.396ZM376.65 304.396H375.65V307H376.65H377.65V304.396H376.65ZM376.65 307V306H373.878V307V308H376.65V307ZM373.878 307H374.878V297.2H373.878H372.878V307H373.878ZM373.878 297.2V298.2H378.358V297.2V296.2H373.878V297.2ZM378.358 297.2V298.2C379.134 298.2 379.757 298.331 380.253 298.557L380.668 297.648L381.084 296.739C380.274 296.368 379.356 296.2 378.358 296.2V297.2ZM380.668 297.648L380.264 298.562C380.755 298.78 381.1 299.078 381.34 299.449L382.18 298.908L383.021 298.367C382.551 297.637 381.888 297.095 381.073 296.734L380.668 297.648ZM382.18 298.908L381.344 299.456C381.578 299.813 381.712 300.255 381.712 300.826H382.712H383.712C383.712 299.922 383.493 299.086 383.017 298.36L382.18 298.908ZM382.712 300.826H381.712C381.712 301.371 381.586 301.802 381.363 302.154L382.208 302.688L383.054 303.222C383.503 302.51 383.712 301.7 383.712 300.826H382.712ZM382.208 302.688L381.36 302.158C381.144 302.504 380.824 302.794 380.358 303.02L380.794 303.92L381.231 304.82C381.997 304.448 382.619 303.918 383.056 303.218L382.208 302.688ZM380.794 303.92L379.97 304.486L382.084 307.566L382.908 307L383.733 306.434L381.619 303.354L380.794 303.92ZM382.908 307V306H379.94V307V308H382.908V307ZM379.94 307L380.766 306.436L378.988 303.832L378.162 304.396L377.337 304.96L379.115 307.564L379.94 307ZM379.912 300.826H380.912C380.912 300.14 380.685 299.486 380.135 299.008L379.478 299.762L378.822 300.516C378.851 300.542 378.912 300.597 378.912 300.826H379.912ZM379.478 299.762L380.135 299.008C379.593 298.536 378.888 298.384 378.19 298.384V299.384V300.384C378.632 300.384 378.785 300.484 378.822 300.516L379.478 299.762ZM378.19 299.384V298.384H376.65V299.384V300.384H378.19V299.384ZM376.65 299.384H375.65V302.254H376.65H377.65V299.384H376.65ZM376.65 302.254V303.254H378.19V302.254V301.254H376.65V302.254ZM378.19 302.254V303.254C378.88 303.254 379.58 303.11 380.121 302.656L379.478 301.89L378.836 301.124C378.798 301.155 378.64 301.254 378.19 301.254V302.254ZM379.478 301.89L380.135 302.644C380.685 302.166 380.912 301.512 380.912 300.826H379.912H378.912C378.912 301.055 378.851 301.11 378.822 301.136L379.478 301.89ZM386.384 306.538L385.913 307.42L385.917 307.422L386.384 306.538ZM384.438 304.718L383.581 305.234L383.586 305.242L384.438 304.718ZM384.438 299.482L383.586 298.958L383.581 298.966L384.438 299.482ZM386.384 297.662L385.917 296.778L385.913 296.78L386.384 297.662ZM391.97 297.662L391.499 298.544L391.503 298.546L391.97 297.662ZM393.916 299.482L393.059 299.998L393.064 300.006L393.916 299.482ZM393.916 304.718L393.064 304.194L393.059 304.202L393.916 304.718ZM391.97 306.538L391.503 305.654L391.499 305.656L391.97 306.538ZM390.528 304.55L391.03 305.415L391.03 305.415L390.528 304.55ZM391.48 303.57L392.354 304.056L392.358 304.048L391.48 303.57ZM391.48 300.644L390.601 301.122L390.606 301.13L391.48 300.644ZM390.528 299.65L391.03 298.785L391.03 298.785L390.528 299.65ZM387.84 299.65L387.337 298.785L387.337 298.785L387.84 299.65ZM386.888 300.644L387.762 301.13L387.766 301.122L386.888 300.644ZM386.888 303.57L386.009 304.048L386.014 304.056L386.888 303.57ZM387.84 304.55L388.342 303.685L388.342 303.685L387.84 304.55ZM389.184 307.196V306.196C388.293 306.196 387.523 306.009 386.851 305.654L386.384 306.538L385.917 307.422C386.906 307.945 388.002 308.196 389.184 308.196V307.196ZM386.384 306.538L386.855 305.656C386.186 305.299 385.671 304.814 385.29 304.194L384.438 304.718L383.586 305.242C384.157 306.171 384.939 306.9 385.913 307.42L386.384 306.538ZM384.438 304.718L385.294 304.202C384.928 303.595 384.738 302.903 384.738 302.1H383.738H382.738C382.738 303.239 383.014 304.292 383.581 305.234L384.438 304.718ZM383.738 302.1H384.738C384.738 301.297 384.928 300.605 385.294 299.998L384.438 299.482L383.581 298.966C383.014 299.908 382.738 300.961 382.738 302.1H383.738ZM384.438 299.482L385.29 300.006C385.671 299.386 386.186 298.901 386.855 298.544L386.384 297.662L385.913 296.78C384.939 297.3 384.157 298.029 383.586 298.958L384.438 299.482ZM386.384 297.662L386.851 298.546C387.523 298.191 388.293 298.004 389.184 298.004V297.004V296.004C388.002 296.004 386.906 296.255 385.917 296.778L386.384 297.662ZM389.184 297.004V298.004C390.074 298.004 390.838 298.191 391.499 298.544L391.97 297.662L392.441 296.78C391.459 296.255 390.365 296.004 389.184 296.004V297.004ZM391.97 297.662L391.503 298.546C392.179 298.903 392.69 299.385 393.059 299.998L393.916 299.482L394.772 298.966C394.208 298.029 393.422 297.298 392.437 296.778L391.97 297.662ZM393.916 299.482L393.064 300.006C393.436 300.612 393.63 301.301 393.63 302.1H394.63H395.63C395.63 300.958 395.347 299.901 394.768 298.958L393.916 299.482ZM394.63 302.1H393.63C393.63 302.899 393.436 303.588 393.064 304.194L393.916 304.718L394.768 305.242C395.347 304.299 395.63 303.242 395.63 302.1H394.63ZM393.916 304.718L393.059 304.202C392.69 304.815 392.179 305.297 391.503 305.654L391.97 306.538L392.437 307.422C393.422 306.902 394.208 306.171 394.772 305.234L393.916 304.718ZM391.97 306.538L391.499 305.656C390.838 306.009 390.074 306.196 389.184 306.196V307.196V308.196C390.365 308.196 391.459 307.945 392.441 307.42L391.97 306.538ZM389.184 304.9V305.9C389.843 305.9 390.466 305.742 391.03 305.415L390.528 304.55L390.025 303.685C389.786 303.824 389.514 303.9 389.184 303.9V304.9ZM390.528 304.55L391.03 305.415C391.593 305.087 392.036 304.627 392.354 304.056L391.48 303.57L390.606 303.084C390.456 303.353 390.265 303.546 390.025 303.685L390.528 304.55ZM391.48 303.57L392.358 304.048C392.681 303.454 392.83 302.796 392.83 302.1H391.83H390.83C390.83 302.505 390.745 302.827 390.601 303.092L391.48 303.57ZM391.83 302.1H392.83C392.83 301.405 392.681 300.747 392.354 300.158L391.48 300.644L390.606 301.13C390.745 301.381 390.83 301.694 390.83 302.1H391.83ZM391.48 300.644L392.358 300.166C392.042 299.585 391.599 299.116 391.03 298.785L390.528 299.65L390.025 300.515C390.26 300.651 390.45 300.844 390.601 301.122L391.48 300.644ZM390.528 299.65L391.03 298.785C390.466 298.458 389.843 298.3 389.184 298.3V299.3V300.3C389.514 300.3 389.786 300.376 390.025 300.515L390.528 299.65ZM389.184 299.3V298.3C388.524 298.3 387.901 298.458 387.337 298.785L387.84 299.65L388.342 300.515C388.581 300.376 388.854 300.3 389.184 300.3V299.3ZM387.84 299.65L387.337 298.785C386.769 299.116 386.325 299.585 386.009 300.166L386.888 300.644L387.766 301.122C387.917 300.844 388.108 300.651 388.342 300.515L387.84 299.65ZM386.888 300.644L386.014 300.158C385.686 300.747 385.538 301.405 385.538 302.1H386.538H387.538C387.538 301.694 387.622 301.381 387.762 301.13L386.888 300.644ZM386.538 302.1H385.538C385.538 302.796 385.686 303.454 386.009 304.048L386.888 303.57L387.766 303.092C387.622 302.827 387.538 302.505 387.538 302.1H386.538ZM386.888 303.57L386.014 304.056C386.331 304.627 386.774 305.087 387.337 305.415L387.84 304.55L388.342 303.685C388.102 303.546 387.911 303.353 387.762 303.084L386.888 303.57ZM387.84 304.55L387.337 305.415C387.901 305.742 388.524 305.9 389.184 305.9V304.9V303.9C388.854 303.9 388.581 303.824 388.342 303.685L387.84 304.55ZM409.004 307L408.004 307.005L408.009 308H409.004V307ZM408.976 301.806L409.976 301.801L409.956 298.208L408.117 301.294L408.976 301.806ZM406.456 306.034V307.034H407.024L407.315 306.546L406.456 306.034ZM405.224 306.034L404.371 306.557L404.664 307.034H405.224V306.034ZM402.718 301.946L403.57 301.423L401.718 298.401V301.946H402.718ZM402.718 307V308H403.718V307H402.718ZM400.156 307H399.156V308H400.156V307ZM400.156 297.2V296.2H399.156V297.2H400.156ZM402.438 297.2L403.292 296.68L403 296.2H402.438V297.2ZM405.882 302.856L405.028 303.376L405.892 304.796L406.742 303.367L405.882 302.856ZM409.242 297.2V296.2H408.673L408.382 296.689L409.242 297.2ZM411.524 297.2L412.524 297.197L412.521 296.2H411.524V297.2ZM411.552 307V308H412.555L412.552 306.997L411.552 307ZM409.004 307L410.004 306.995L409.976 301.801L408.976 301.806L407.976 301.811L408.004 307.005L409.004 307ZM408.976 301.806L408.117 301.294L405.597 305.522L406.456 306.034L407.315 306.546L409.835 302.318L408.976 301.806ZM406.456 306.034V305.034H405.224V306.034V307.034H406.456V306.034ZM405.224 306.034L406.076 305.511L403.57 301.423L402.718 301.946L401.865 302.469L404.371 306.557L405.224 306.034ZM402.718 301.946H401.718V307H402.718H403.718V301.946H402.718ZM402.718 307V306H400.156V307V308H402.718V307ZM400.156 307H401.156V297.2H400.156H399.156V307H400.156ZM400.156 297.2V298.2H402.438V297.2V296.2H400.156V297.2ZM402.438 297.2L401.584 297.72L405.028 303.376L405.882 302.856L406.736 302.336L403.292 296.68L402.438 297.2ZM405.882 302.856L406.742 303.367L410.102 297.711L409.242 297.2L408.382 296.689L405.022 302.345L405.882 302.856ZM409.242 297.2V298.2H411.524V297.2V296.2H409.242V297.2ZM411.524 297.2L410.524 297.203L410.552 307.003L411.552 307L412.552 306.997L412.524 297.197L411.524 297.2ZM411.552 307V306H409.004V307V308H411.552V307ZM420.079 305.096L421.006 304.721L420.753 304.096H420.079V305.096ZM415.935 305.096V304.096H415.261L415.008 304.721L415.935 305.096ZM415.165 307V308H415.839L416.092 307.375L415.165 307ZM412.337 307L411.422 306.596L410.803 308H412.337V307ZM416.663 297.2V296.2H416.012L415.748 296.796L416.663 297.2ZM419.393 297.2L420.308 296.795L420.044 296.2H419.393V297.2ZM423.733 307V308H425.27L424.648 306.595L423.733 307ZM420.849 307L419.922 307.375L420.175 308H420.849V307ZM419.267 303.052V304.052H420.747L420.195 302.679L419.267 303.052ZM418.007 299.916L418.935 299.543L418.007 297.234L417.079 299.543L418.007 299.916ZM416.747 303.052L415.819 302.679L415.268 304.052H416.747V303.052ZM420.079 305.096V304.096H415.935V305.096V306.096H420.079V305.096ZM415.935 305.096L415.008 304.721L414.238 306.625L415.165 307L416.092 307.375L416.862 305.471L415.935 305.096ZM415.165 307V306H412.337V307V308H415.165V307ZM412.337 307L413.252 307.404L417.578 297.604L416.663 297.2L415.748 296.796L411.422 306.596L412.337 307ZM416.663 297.2V298.2H419.393V297.2V296.2H416.663V297.2ZM419.393 297.2L418.479 297.605L422.819 307.405L423.733 307L424.648 306.595L420.308 296.795L419.393 297.2ZM423.733 307V306H420.849V307V308H423.733V307ZM420.849 307L421.776 306.625L421.006 304.721L420.079 305.096L419.152 305.471L419.922 307.375L420.849 307ZM419.267 303.052L420.195 302.679L418.935 299.543L418.007 299.916L417.079 300.289L418.339 303.425L419.267 303.052ZM418.007 299.916L417.079 299.543L415.819 302.679L416.747 303.052L417.675 303.425L418.935 300.289L418.007 299.916ZM416.747 303.052V304.052H419.267V303.052V302.052H416.747V303.052ZM428.299 303.444L429.085 302.825L428.365 301.911L427.569 302.76L428.299 303.444ZM427.263 304.55L426.533 303.866L426.263 304.155V304.55H427.263ZM427.263 307V308H428.263V307H427.263ZM424.519 307H423.519V308H424.519V307ZM424.519 297.2V296.2H423.519V297.2H424.519ZM427.263 297.2H428.263V296.2H427.263V297.2ZM427.263 301.274H426.263V303.815L427.995 301.956L427.263 301.274ZM431.057 297.2V296.2H430.622L430.325 296.518L431.057 297.2ZM434.109 297.2L434.844 297.878L436.392 296.2H434.109V297.2ZM430.105 301.54L429.37 300.862L428.798 301.483L429.313 302.151L430.105 301.54ZM434.319 307V308H436.354L435.111 306.389L434.319 307ZM431.099 307L430.313 307.619L430.614 308H431.099V307ZM428.299 303.444L427.569 302.76L426.533 303.866L427.263 304.55L427.993 305.234L429.029 304.128L428.299 303.444ZM427.263 304.55H426.263V307H427.263H428.263V304.55H427.263ZM427.263 307V306H424.519V307V308H427.263V307ZM424.519 307H425.519V297.2H424.519H423.519V307H424.519ZM424.519 297.2V298.2H427.263V297.2V296.2H424.519V297.2ZM427.263 297.2H426.263V301.274H427.263H428.263V297.2H427.263ZM427.263 301.274L427.995 301.956L431.789 297.882L431.057 297.2L430.325 296.518L426.531 300.592L427.263 301.274ZM431.057 297.2V298.2H434.109V297.2V296.2H431.057V297.2ZM434.109 297.2L433.374 296.522L429.37 300.862L430.105 301.54L430.84 302.218L434.844 297.878L434.109 297.2ZM430.105 301.54L429.313 302.151L433.527 307.611L434.319 307L435.111 306.389L430.897 300.929L430.105 301.54ZM434.319 307V306H431.099V307V308H434.319V307ZM431.099 307L431.885 306.381L429.085 302.825L428.299 303.444L427.513 304.063L430.313 307.619L431.099 307ZM436.408 299.398H437.408V298.398H436.408V299.398ZM433.398 299.398H432.398V300.398H433.398V299.398ZM433.398 297.2V296.2H432.398V297.2H433.398ZM442.176 297.2H443.176V296.2H442.176V297.2ZM442.176 299.398V300.398H443.176V299.398H442.176ZM439.18 299.398V298.398H438.18V299.398H439.18ZM439.18 307V308H440.18V307H439.18ZM436.408 307H435.408V308H436.408V307ZM436.408 299.398V298.398H433.398V299.398V300.398H436.408V299.398ZM433.398 299.398H434.398V297.2H433.398H432.398V299.398H433.398ZM433.398 297.2V298.2H442.176V297.2V296.2H433.398V297.2ZM442.176 297.2H441.176V299.398H442.176H443.176V297.2H442.176ZM442.176 299.398V298.398H439.18V299.398V300.398H442.176V299.398ZM439.18 299.398H438.18V307H439.18H440.18V299.398H439.18ZM439.18 307V306H436.408V307V308H439.18V307ZM436.408 307H437.408V299.398H436.408H435.408V307H436.408ZM449.282 305.096L450.209 304.721L449.957 304.096H449.282V305.096ZM445.138 305.096V304.096H444.464L444.211 304.721L445.138 305.096ZM444.368 307V308H445.043L445.295 307.375L444.368 307ZM441.54 307L440.625 306.596L440.006 308H441.54V307ZM445.866 297.2V296.2H445.215L444.951 296.796L445.866 297.2ZM448.596 297.2L449.511 296.795L449.247 296.2H448.596V297.2ZM452.936 307V308H454.473L453.851 306.595L452.936 307ZM450.052 307L449.125 307.375L449.378 308H450.052V307ZM448.47 303.052V304.052H449.95L449.398 302.679L448.47 303.052ZM447.21 299.916L448.138 299.543L447.21 297.234L446.282 299.543L447.21 299.916ZM445.95 303.052L445.022 302.679L444.471 304.052H445.95V303.052ZM449.282 305.096V304.096H445.138V305.096V306.096H449.282V305.096ZM445.138 305.096L444.211 304.721L443.441 306.625L444.368 307L445.295 307.375L446.065 305.471L445.138 305.096ZM444.368 307V306H441.54V307V308H444.368V307ZM441.54 307L442.455 307.404L446.781 297.604L445.866 297.2L444.951 296.796L440.625 306.596L441.54 307ZM445.866 297.2V298.2H448.596V297.2V296.2H445.866V297.2ZM448.596 297.2L447.682 297.605L452.022 307.405L452.936 307L453.851 306.595L449.511 296.795L448.596 297.2ZM452.936 307V306H450.052V307V308H452.936V307ZM450.052 307L450.979 306.625L450.209 304.721L449.282 305.096L448.355 305.471L449.125 307.375L450.052 307ZM448.47 303.052L449.398 302.679L448.138 299.543L447.21 299.916L446.282 300.289L447.542 303.425L448.47 303.052ZM447.21 299.916L446.282 299.543L445.022 302.679L445.95 303.052L446.878 303.425L448.138 300.289L447.21 299.916ZM445.95 303.052V304.052H448.47V303.052V302.052H445.95V303.052ZM461.254 301.89L460.799 301L458.72 302.062L460.924 302.834L461.254 301.89ZM462.57 302.814L461.772 303.417L461.779 303.425L462.57 302.814ZM462.01 306.3L462.57 307.129L462.57 307.129L462.01 306.3ZM453.722 307H452.722V308H453.722V307ZM453.722 297.2V296.2H452.722V297.2H453.722ZM461.59 297.9L461.009 298.714L461.017 298.719L461.59 297.9ZM462.22 301.022L461.372 300.492L461.369 300.498L462.22 301.022ZM456.466 299.202V298.202H455.466V299.202H456.466ZM456.466 301.092H455.466V302.092H456.466V301.092ZM456.466 303.01V302.01H455.466V303.01H456.466ZM456.466 304.998H455.466V305.998H456.466V304.998ZM461.254 301.89L460.924 302.834C461.322 302.973 461.589 303.174 461.772 303.417L462.57 302.814L463.368 302.211C462.917 301.614 462.306 301.199 461.585 300.946L461.254 301.89ZM462.57 302.814L461.779 303.425C461.943 303.638 462.046 303.914 462.046 304.312H463.046H464.046C464.046 303.534 463.832 302.811 463.361 302.203L462.57 302.814ZM463.046 304.312H462.046C462.046 304.851 461.856 305.197 461.45 305.471L462.01 306.3L462.57 307.129C463.546 306.469 464.046 305.491 464.046 304.312H463.046ZM462.01 306.3L461.45 305.471C460.994 305.779 460.226 306 459.014 306V307V308C460.416 308 461.645 307.754 462.57 307.129L462.01 306.3ZM459.014 307V306H453.722V307V308H459.014V307ZM453.722 307H454.722V297.2H453.722H452.722V307H453.722ZM453.722 297.2V298.2H458.734V297.2V296.2H453.722V297.2ZM458.734 297.2V298.2C459.885 298.2 460.596 298.419 461.009 298.714L461.59 297.9L462.171 297.086C461.278 296.448 460.085 296.2 458.734 296.2V297.2ZM461.59 297.9L461.017 298.719C461.408 298.993 461.57 299.311 461.57 299.762H462.57H463.57C463.57 298.645 463.079 297.721 462.164 297.081L461.59 297.9ZM462.57 299.762H461.57C461.57 300.053 461.5 300.287 461.372 300.492L462.22 301.022L463.068 301.552C463.407 301.01 463.57 300.404 463.57 299.762H462.57ZM462.22 301.022L461.369 300.498C461.25 300.69 461.073 300.859 460.799 301L461.254 301.89L461.709 302.78C462.275 302.491 462.742 302.082 463.072 301.546L462.22 301.022ZM456.466 299.202H455.466V301.092H456.466H457.466V299.202H456.466ZM456.466 301.092V302.092H458.37V301.092V300.092H456.466V301.092ZM458.37 301.092V302.092C458.919 302.092 459.507 302.004 459.982 301.681C460.527 301.311 460.77 300.74 460.77 300.14H459.77H458.77C458.77 300.176 458.764 300.159 458.785 300.116C458.808 300.069 458.841 300.039 458.858 300.027C458.869 300.02 458.846 300.038 458.762 300.057C458.677 300.076 458.55 300.092 458.37 300.092V301.092ZM459.77 300.14H460.77C460.77 299.538 460.522 298.971 459.977 298.606C459.502 298.288 458.917 298.202 458.37 298.202V299.202V300.202C458.551 300.202 458.679 300.217 458.765 300.237C458.851 300.256 458.874 300.274 458.864 300.267C458.847 300.256 458.812 300.225 458.787 300.175C458.765 300.13 458.77 300.109 458.77 300.14H459.77ZM458.37 299.202V298.202H456.466V299.202V300.202H458.37V299.202ZM458.79 304.998V305.998C459.358 305.998 459.961 305.907 460.446 305.575C461 305.197 461.246 304.617 461.246 304.004H460.246H459.246C459.246 304.047 459.239 304.037 459.257 304C459.277 303.959 459.306 303.932 459.318 303.924C459.324 303.919 459.297 303.94 459.205 303.961C459.114 303.982 458.979 303.998 458.79 303.998V304.998ZM460.246 304.004H461.246C461.246 303.391 461 302.811 460.446 302.433C459.961 302.101 459.358 302.01 458.79 302.01V303.01V304.01C458.979 304.01 459.114 304.026 459.205 304.047C459.297 304.068 459.324 304.089 459.318 304.084C459.306 304.076 459.277 304.049 459.257 304.008C459.239 303.971 459.246 303.961 459.246 304.004H460.246ZM458.79 303.01V302.01H456.466V303.01V304.01H458.79V303.01ZM456.466 303.01H455.466V304.998H456.466H457.466V303.01H456.466ZM456.466 304.998V305.998H458.79V304.998V303.998H456.466V304.998ZM464.482 297.2V296.2H463.482V297.2H464.482ZM467.254 297.2H468.254V296.2H467.254V297.2ZM467.254 307V308H468.254V307H467.254ZM464.482 307H463.482V308H464.482V307ZM464.482 297.2V298.2H467.254V297.2V296.2H464.482V297.2ZM467.254 297.2H466.254V307H467.254H468.254V297.2H467.254ZM467.254 307V306H464.482V307V308H467.254V307ZM464.482 307H465.482V297.2H464.482H463.482V307H464.482Z" fill="#946BB4" mask="url(#path-16-outside-1_392_109)"/>
<defs>
<filter id="filter0_f_392_109" x="0" y="-0.000244141" width="524" height="366" filterUnits="userSpaceOnUse" color-interpolation-filters="sRGB">
<feFlood flood-opacity="0" result="BackgroundImageFix"/>
<feBlend mode="normal" in="SourceGraphic" in2="BackgroundImageFix" result="shape"/>
<feGaussianBlur stdDeviation="22" result="effect1_foregroundBlur_392_109"/>
</filter>
<linearGradient id="paint0_linear_392_109" x1="619" y1="43.9998" x2="619" y2="480" gradientUnits="userSpaceOnUse">
<stop stop-color="#9A73FA"/>
<stop offset="0.74" stop-color="#7DA0F7"/>
</linearGradient>
<linearGradient id="paint1_linear_392_109" x1="619" y1="43.9998" x2="619" y2="480" gradientUnits="userSpaceOnUse">
<stop stop-color="#9A73FA"/>
<stop offset="0.74" stop-color="#7DA0F7"/>
</linearGradient>
<linearGradient id="paint2_linear_392_109" x1="619" y1="43.9998" x2="619" y2="480" gradientUnits="userSpaceOnUse">
<stop stop-color="#E42C64"/>
<stop offset="1" stop-color="#614AD3"/>
</linearGradient>
<linearGradient id="paint3_linear_392_109" x1="294.019" y1="136.557" x2="294.019" y2="229.335" gradientUnits="userSpaceOnUse">
<stop stop-color="white" stop-opacity="0.5"/>
<stop offset="1" stop-color="white" stop-opacity="0.1"/>
</linearGradient>
<linearGradient id="paint4_linear_392_109" x1="294.019" y1="136.557" x2="294.019" y2="229.335" gradientUnits="userSpaceOnUse">
<stop stop-color="white" stop-opacity="0.5"/>
<stop offset="1" stop-color="white" stop-opacity="0.1"/>
</linearGradient>
<linearGradient id="paint5_linear_392_109" x1="294.019" y1="136.557" x2="294.019" y2="229.335" gradientUnits="userSpaceOnUse">
<stop stop-color="white" stop-opacity="0.5"/>
<stop offset="1" stop-color="white" stop-opacity="0.1"/>
</linearGradient>
<linearGradient id="paint6_linear_392_109" x1="294.019" y1="136.557" x2="294.019" y2="229.335" gradientUnits="userSpaceOnUse">
<stop stop-color="white" stop-opacity="0.5"/>
<stop offset="1" stop-color="white" stop-opacity="0.1"/>
</linearGradient>
<linearGradient id="paint7_linear_392_109" x1="294.019" y1="43.78" x2="294.019" y2="136.558" gradientUnits="userSpaceOnUse">
<stop stop-color="white" stop-opacity="0.5"/>
<stop offset="1" stop-color="white" stop-opacity="0.1"/>
</linearGradient>
<linearGradient id="paint8_linear_392_109" x1="294.019" y1="43.78" x2="294.019" y2="136.558" gradientUnits="userSpaceOnUse">
<stop stop-color="white" stop-opacity="0.5"/>
<stop offset="1" stop-color="white" stop-opacity="0.1"/>
</linearGradient>
<linearGradient id="paint9_linear_392_109" x1="294.019" y1="43.78" x2="294.019" y2="136.558" gradientUnits="userSpaceOnUse">
<stop stop-color="white" stop-opacity="0.5"/>
<stop offset="1" stop-color="white" stop-opacity="0.1"/>
</linearGradient>
<linearGradient id="paint10_linear_392_109" x1="294.019" y1="43.78" x2="294.019" y2="136.558" gradientUnits="userSpaceOnUse">
<stop stop-color="white" stop-opacity="0.5"/>
<stop offset="1" stop-color="white" stop-opacity="0.1"/>
</linearGradient>
<linearGradient id="paint11_linear_392_109" x1="294.019" y1="229.335" x2="294.019" y2="322.113" gradientUnits="userSpaceOnUse">
<stop stop-color="white" stop-opacity="0.5"/>
<stop offset="1" stop-color="white" stop-opacity="0.1"/>
</linearGradient>
<linearGradient id="paint12_linear_392_109" x1="294.019" y1="229.335" x2="294.019" y2="322.113" gradientUnits="userSpaceOnUse">
<stop stop-color="white" stop-opacity="0.5"/>
<stop offset="1" stop-color="white" stop-opacity="0.1"/>
</linearGradient>
<linearGradient id="paint13_linear_392_109" x1="294.019" y1="229.335" x2="294.019" y2="322.113" gradientUnits="userSpaceOnUse">
<stop stop-color="white" stop-opacity="0.5"/>
<stop offset="1" stop-color="white" stop-opacity="0.1"/>
</linearGradient>
<linearGradient id="paint14_linear_392_109" x1="294.019" y1="229.335" x2="294.019" y2="322.113" gradientUnits="userSpaceOnUse">
<stop stop-color="white" stop-opacity="0.5"/>
<stop offset="1" stop-color="white" stop-opacity="0.1"/>
</linearGradient>
<linearGradient id="paint15_linear_392_109" x1="141.962" y1="185.627" x2="188.665" y2="249.795" gradientUnits="userSpaceOnUse">
<stop stop-color="#C4C4C4"/>
<stop offset="1" stop-color="#C4C4C4" stop-opacity="0.3"/>
</linearGradient>
</defs>
</svg>
